<svg width="52" height="52" viewBox="0 0 52 52" fill="none" xmlns="http://www.w3.org/2000/svg">
<g filter="url(#filter0_d_1503_1086)">
<rect x="2" y="1" width="48" height="48" rx="10" fill="white"/>
<rect x="2.5" y="1.5" width="47" height="47" rx="9.5" stroke="#EAECF0"/>
<path d="M31.4996 16L34.9996 19.5M34.9996 19.5L31.4996 23M34.9996 19.5H26.9996M24.2266 26.8631C23.0251 25.6615 22.0763 24.3028 21.3803 22.8532C21.3204 22.7285 21.2905 22.6662 21.2675 22.5873C21.1858 22.3069 21.2445 21.9627 21.4145 21.7253C21.4623 21.6584 21.5195 21.6013 21.6338 21.487C21.9834 21.1374 22.1582 20.9626 22.2725 20.7868C22.7035 20.1239 22.7035 19.2693 22.2725 18.6064C22.1582 18.4307 21.9834 18.2559 21.6338 17.9062L21.4389 17.7114C20.9075 17.1799 20.6417 16.9142 20.3564 16.7699C19.7888 16.4828 19.1185 16.4828 18.551 16.7699C18.2656 16.9142 17.9999 17.1799 17.4684 17.7114L17.3108 17.869C16.7812 18.3986 16.5164 18.6634 16.3141 19.0235C16.0897 19.423 15.9283 20.0435 15.9297 20.5017C15.9309 20.9146 16.011 21.1969 16.1712 21.7613C17.0322 24.7947 18.6567 27.6571 21.0447 30.045C23.4326 32.433 26.295 34.0575 29.3284 34.9185C29.8928 35.0787 30.1751 35.1588 30.588 35.16C31.0462 35.1614 31.6667 35 32.0662 34.7756C32.4263 34.5733 32.6911 34.3085 33.2207 33.7789L33.3783 33.6213C33.9098 33.0898 34.1755 32.8241 34.3198 32.5387C34.6069 31.9712 34.6069 31.3009 34.3198 30.7333C34.1755 30.448 33.9098 30.1822 33.3783 29.6508L33.1835 29.4559C32.8339 29.1063 32.6591 28.9315 32.4833 28.8172C31.8204 28.3862 30.9658 28.3862 30.3029 28.8172C30.1271 28.9315 29.9523 29.1063 29.6027 29.4559C29.4884 29.5702 29.4313 29.6274 29.3644 29.6752C29.127 29.8453 28.7828 29.904 28.5024 29.8222C28.4235 29.7992 28.3612 29.7693 28.2365 29.7094C26.7869 29.0134 25.4282 28.0646 24.2266 26.8631Z" stroke="#344054" stroke-width="2" stroke-linecap="round" stroke-linejoin="round"/>
</g>
<defs>
<filter id="filter0_d_1503_1086" x="0" y="0" width="52" height="52" filterUnits="userSpaceOnUse" color-interpolation-filters="sRGB">
<feFlood flood-opacity="0" result="BackgroundImageFix"/>
<feColorMatrix in="SourceAlpha" type="matrix" values="0 0 0 0 0 0 0 0 0 0 0 0 0 0 0 0 0 0 127 0" result="hardAlpha"/>
<feOffset dy="1"/>
<feGaussianBlur stdDeviation="1"/>
<feColorMatrix type="matrix" values="0 0 0 0 0.0627451 0 0 0 0 0.0941176 0 0 0 0 0.156863 0 0 0 0.05 0"/>
<feBlend mode="normal" in2="BackgroundImageFix" result="effect1_dropShadow_1503_1086"/>
<feBlend mode="normal" in="SourceGraphic" in2="effect1_dropShadow_1503_1086" result="shape"/>
</filter>
</defs>
</svg>
