<svg width="36" height="36" viewBox="0 0 36 36" fill="none" xmlns="http://www.w3.org/2000/svg">
<g style="mix-blend-mode:multiply">
<rect x="2" y="2" width="32" height="32" rx="16" fill="#F4EBFF"/>
<rect x="2" y="2" width="32" height="32" rx="16" stroke="#F9F5FF" stroke-width="4"/>
<path d="M19.3332 11.5129V14.2666C19.3332 14.64 19.3332 14.8267 19.4058 14.9693C19.4697 15.0947 19.5717 15.1967 19.6972 15.2606C19.8398 15.3333 20.0265 15.3333 20.3998 15.3333H23.1535M19.3332 21.3333H15.3332M20.6665 18.6666H15.3332M23.3332 16.6587V21.4666C23.3332 22.5867 23.3332 23.1467 23.1152 23.5746C22.9234 23.9509 22.6175 24.2569 22.2412 24.4486C21.8133 24.6666 21.2533 24.6666 20.1332 24.6666H15.8665C14.7464 24.6666 14.1863 24.6666 13.7585 24.4486C13.3822 24.2569 13.0762 23.9509 12.8845 23.5746C12.6665 23.1467 12.6665 22.5867 12.6665 21.4666V14.5333C12.6665 13.4131 12.6665 12.8531 12.8845 12.4253C13.0762 12.0489 13.3822 11.743 13.7585 11.5512C14.1863 11.3333 14.7464 11.3333 15.8665 11.3333H18.0077C18.4969 11.3333 18.7415 11.3333 18.9716 11.3885C19.1757 11.4375 19.3708 11.5183 19.5497 11.628C19.7516 11.7517 19.9245 11.9246 20.2704 12.2705L22.3959 14.396C22.7418 14.7419 22.9148 14.9148 23.0385 15.1167C23.1481 15.2956 23.2289 15.4907 23.2779 15.6948C23.3332 15.925 23.3332 16.1696 23.3332 16.6587Z" stroke="#7F56D9" stroke-width="1.33333" stroke-linecap="round" stroke-linejoin="round"/>
</g>
</svg>
