<svg width="36" height="36" viewBox="0 0 36 36" fill="none" xmlns="http://www.w3.org/2000/svg">
<g style="mix-blend-mode:multiply">
<rect x="2" y="2" width="32" height="32" rx="16" fill="#F4EBFF"/>
<rect x="2" y="2" width="32" height="32" rx="16" stroke="#F9F5FF" stroke-width="4"/>
<path d="M24.6668 15.9542C24.6668 15.5503 24.6668 15.3483 24.587 15.2548C24.5177 15.1737 24.4137 15.1306 24.3073 15.139C24.1847 15.1487 24.042 15.2915 23.7564 15.577L21.3335 17.9999L23.7564 20.4228C24.042 20.7084 24.1847 20.8512 24.3073 20.8608C24.4137 20.8692 24.5177 20.8261 24.587 20.745C24.6668 20.6515 24.6668 20.4495 24.6668 20.0457V15.9542Z" stroke="#7F56D9" stroke-width="1.33333" stroke-linecap="round" stroke-linejoin="round"/>
<path d="M11.3335 16.5333C11.3335 15.4131 11.3335 14.8531 11.5515 14.4253C11.7432 14.0489 12.0492 13.743 12.4255 13.5512C12.8533 13.3333 13.4134 13.3333 14.5335 13.3333H18.1335C19.2536 13.3333 19.8137 13.3333 20.2415 13.5512C20.6178 13.743 20.9238 14.0489 21.1155 14.4253C21.3335 14.8531 21.3335 15.4131 21.3335 16.5333V19.4666C21.3335 20.5867 21.3335 21.1467 21.1155 21.5746C20.9238 21.9509 20.6178 22.2569 20.2415 22.4486C19.8137 22.6666 19.2536 22.6666 18.1335 22.6666H14.5335C13.4134 22.6666 12.8533 22.6666 12.4255 22.4486C12.0492 22.2569 11.7432 21.9509 11.5515 21.5746C11.3335 21.1467 11.3335 20.5867 11.3335 19.4666V16.5333Z" stroke="#7F56D9" stroke-width="1.33333" stroke-linecap="round" stroke-linejoin="round"/>
</g>
</svg>
